<svg width="182" height="49" version="1.1" viewBox="0 0 182 49" xmlns="http://www.w3.org/2000/svg">
	<path fill="white" d="m44 23c-0.56 1.7-3.9 4.8-5.7 6.6-1.8 1.8-3.5 3.1-4.4 3.1-2.3 0-3.9-1.6-3.6-9.8 0.065-1.6 0.15-3.4 0.22-4.9v-5e-4l1e-4 -0.0023c0.063-1.4 0.12-2.5 0.14-3.2 0.012-0.33-0.23-0.32-0.44-0.12-1.2 1.1-3.8 4.4-5.8 11-1.1 3.6-1.3 5-1.4 5.9v4e-4l-1e-4 4e-4c-0.021 0.17-0.04 0.33-0.062 0.48-0.13 0.88-2.6 0.58-3 0.5-0.48-0.093-0.77-0.32-1-0.61-0.25-0.3-0.45-0.79-0.58-1.4-0.13-0.61-0.16-2-0.16-3.2l0.11-16c0-0.51 0.29-0.77 0.88-0.77 1.2 0 2.6 0.54 3.1 0.81 0.3 0.16 0.44 0.38 0.44 0.62l-0.066 10s0.76-1.9 1.1-3c3.1-8.4 6.3-8.5 7.4-8.5 0.75 0 2 0.69 2.7 1 1 0.58 1.6 1.2 1.5 2.4-0.033 0.82-0.068 1.6-0.1 2.4l-2e-4 0.0063-2e-4 0.0033v0.0016l-1e-4 4e-4v0.0012c-0.11 2.5-0.21 4.8-0.21 6.5v0.099c-2e-4 2.5-4e-4 5.2 0.93 5.2 1.1 0 5.8-4.9 6.5-6.8m16 1.1c-0.56-1.6-0.67-13-0.67-13-0.61-0.017-1.3-0.034-2.1-0.052-1.1-0.026-2.3-0.054-3.1-0.083-1.2-0.042-0.25-3.4 0.58-3.4 0.45 0 1.4 0.042 2.4 0.083 1 0.042 2 0.083 2.4 0.083 0 0 0.085-4.4 0.25-5.8 0.11-0.98 0.67-1.2 1.9-0.98 0.89 0.17 1.6 0.33 2.5 0.67l0.028 0.011c0.35 0.14 0.92 0.36 0.88 0.79-0.047 0.53-0.25 5.5-0.25 5.5s2.2 0.16 3 0.17c0.96 0.019 3.4 0.14 3.7 0.28 0.75 0.31 0.05 2.8-0.68 2.8-1.1 0.051-1.9 0.052-2.6 0.053-0.3 5e-4 -0.59 9e-4 -0.89 4e-3 -0.42 0.0046-2.6 0.04-2.6 0.04-0.058 0.72-0.4 8.2-0.4 14 0 4 0.97 5.8 2 5.8 1.7 0 3.9-3.2 4.3-6-0.0083-0.98 0.056-2 0.2-3.1 0.5-3.9 1.5-5.6 2.7-7.2 1.8-2.4 4.3-3 6.6-2.3 0.86 0.24 2.2 1.1 3 2.3v-0.87c0-0.38 0.42-0.88 1-0.92 0.45-0.032 1 0.023 1.7 0.17 0.65 0.14 2 0.53 2.1 1.3 0.0014 0.1-0.0084 0.36-0.022 0.73l-2e-4 0.0044-1e-4 2e-3v1e-3c-0.02 0.5-0.047 1.2-0.065 2-0.018 0.84-0.042 1.6-0.067 2.3v0.0012c-0.048 1.4-0.096 2.8-0.096 5.1 0 5.9 0.87 7.2 2.4 7.2 1.2 0 2.3-1.8 2.6-3.5-0.34-1.7-0.39-3.8-0.14-6.2 0.27-2.6 1.2-5.3 2.7-7.2 1.8-2.4 4.3-3 6.6-2.3 0.86 0.24 2.2 1.1 3 2.3 0 0 0-0.68-4e-3 -0.78-0.015-0.58 0.58-1.1 1.6-1 0.78 0.057 1.5 0.22 2.2 0.46 0.72 0.27 1.1 0.48 1.1 1 1e-3 0.1-8e-3 0.35-0.022 0.71l-1e-3 6e-4c-0.019 0.5-0.047 1.2-0.065 2-0.032 1.5-0.1 5.5-0.087 11 1e-3 0.36 3e-3 0.72 6e-3 1.1 0.76-0.97 1.3-1.9 2.1-3.1 1.4-2.3 2.8-5.5 3.4-7.9 0 0-1.7-0.94-1.4-2.9 0.18-1.3 0.64-2 1.3-2.6 1.1-0.99 4.7-1.2 4.3 1.9-0.073 0.59-0.16 0.93-0.16 0.93 1.5-0.21 3.1-0.48 4.2-0.73 1.6-0.35 2.7-0.066 3.2 0.49 0.56 0.61 0.79 1.2 0.51 2.5-0.12 0.51-0.23 0.99-0.34 1.5v0.0018c-0.51 2.1-0.92 3.9-0.99 6.2-0.14 4.3 1 6.7 2.6 6.7 1.1 0 2.1-0.91 2.7-3.1-0.45-2-0.53-4.3-0.28-6.6 0.35-3.1 1.2-5.3 2.7-7.2 1.8-2.4 4.3-3 6.6-2.3 0.86 0.24 2.2 1.1 3 2.3 0 0-3e-3 -0.54-3e-3 -0.83 0-0.53 0.44-0.92 1.1-0.96 0.44-0.024 1 0.032 1.7 0.18 0.65 0.14 2 0.53 2.1 1.3 2e-3 0.11-8e-3 0.36-0.022 0.73l-1e-3 0.0014c-0.019 0.5-0.046 1.2-0.064 2-0.018 0.84-0.043 1.6-0.067 2.3-0.048 1.4-0.096 2.8-0.096 5.1 0 5.9 0.73 7.2 2.3 7.2 1.5 0 2.9-3.1 3.4-5.3-1e-3 -0.25-2e-3 -0.48-2e-3 -0.7 0-4.4 0.098-10 0.12-12v-0.023l1e-3 -0.028v-0.02c2e-3 -0.13 4e-3 -0.21 4e-3 -0.22 0-0.61 0.19-1 0.98-1 0.64 0 2.1 0.35 2.9 0.56 0.17 0.047 0.73 0.31 0.73 1.1-9e-3 2.1-0.018 7.5-0.018 7.5s0.49-1.4 1.2-3.4c0.86-2.5 1.7-4.6 2.4-5.3 0.82-0.95 3.1-0.15 3.9 0.3 1.2 0.69 1.4 1.5 1.4 2.5 0.034 4.6 0.28 7.1 0.43 8.5 0.014 0.14 0.027 0.26 0.039 0.38 0.019 0.2 0.13 0.18 0.14 0.098 0.21-1.7 1.1-5.8 3.4-11 0.8-1.8 2.4-1.3 3.5-0.89l0.012 0.0038c2.6 0.88 2.8 1.8 2.8 2.7-0.25 4.4-0.28 8.9-0.085 11 0.25 3.1 1.2 4.6 2.3 4.6 0.96 0 1.7-0.7 2.4-3.8 0.2-0.89 0.45-1.4 1-1.4 0.7 0 0.93 0.83 0.77 1.9-0.65 4.5-2.6 6.2-5 6.2-1.1 0-4.3-0.51-5.4-5.1-0.81-3.4-0.61-9.5-0.52-11 2e-3 -0.051-0.07-0.31-0.23 0.02l-0.034 0.073c-0.45 0.96-1.6 3.4-2.3 6-1.1 4.2-1.2 7.1-1.1 7.6 0.11 0.97-1.1 1.1-1.7 1.1-0.92 0-2-0.072-3-1.6-0.32-0.53-0.74-2.2-1-5.1-0.41-3.7-0.47-6.5-0.5-7.6l-2e-3 -0.12c-0.012-0.48-0.32-0.41-0.59 0.049l-0.041 0.069c-0.5 0.84-1.5 2.5-2.6 6.7-0.5 2-0.58 4.4-0.64 6.4-0.018 0.58-0.033 1.1-0.059 1.6-0.042 0.77-0.35 1.1-0.74 1.1-0.57 0.11-2.1 0.36-3.6-0.17-0.34-0.12-0.81-0.37-0.89-0.57-0.13-0.32-0.22-1.3-0.27-2.6-1.3 2.8-2.8 3.5-4.5 3.5-1.6 0-4.4-1-4.9-4.4 0 0-0.34 0.67-0.94 1.4-2.7 3.4-7.9 4.3-11 0.26-0.13-0.2-0.25-0.41-0.37-0.63-0.96 2-2.7 3.3-4.6 3.3-1.6 0-4.3-1-5.5-4.2-1.7-4.6 0.11-11 0.28-12l6e-3 -0.022c0.095-0.36-0.053-0.46-0.57-0.42-1.6 0.1-3.1 0.087-3.1 0.087-0.89 2.6-2.6 6-4.2 8.6-1.5 2.3-3.1 4.3-4.5 5.9 0.018 1.2 0.039 2.3 0.058 3.4v1e-4c0.014 0.76 0.027 1.5 0.037 2.1 0.061 3.7-0.77 7.5-2 9.3-1.4 2-3.8 3.4-6.5 3.2-2.6-0.19-6-1.7-5.7-5.6 0.23-3.1 3.3-5.8 7.4-9.3l0.017-0.015c0.92-0.8 2.4-2.1 2.4-2.1l-0.077-2.1c-0.095 0.13-0.2 0.28-0.33 0.44-2.6 3.4-7.9 4.3-11 0.26-0.18-0.27-0.34-0.55-0.49-0.85-1.3 2.7-3.1 3.5-4.9 3.5-1.6 0-4.4-1.1-4.7-4.4 0 0-0.12 0.38-0.94 1.4-2.6 3.4-7.9 4.3-11 0.26-0.57-0.85-1-1.8-1.3-3-1 2.8-3.4 5.7-5.7 5.7-3.5 0-6.1-11-5.3-9.3m81 4.9c0.67-1.4 1.2-3.3 1.3-5.8 0.23-5-0.74-7.8-2.8-8-2.1-0.2-3.4 2-3.8 5-0.45 2.9-0.42 6.4 0.2 8.4 1.1 3.8 3.8 3 5.1 0.34zm-36 8.8c-0.028 4.1-0.65 7.7-2 8.8-1.9 1.5-4.5 0.37-3.9-2.6 0.47-2.7 2.7-5.4 5.9-8.7 0 0 7e-3 0.76-5e-3 2.6zm-1.4-8.8c0.62-1.3 1.2-3.6 1.3-5.8 0.29-5.6-0.73-7.9-2.8-7.9-2.1 0-3.3 2.6-3.8 5.3-0.38 2.1-0.56 5.5 0.2 8.1 1.1 3.8 3.8 3 5.1 0.34zm-21-5.8c-0.13 2.4-0.58 4.4-1.3 5.8-1.3 2.6-3.9 3.5-5.1-0.34-0.83-2.7-0.55-6.5-0.2-8.5 0.51-3 1.8-5.1 3.8-4.9 2.1 0.21 3.1 2.9 2.8 7.9zm-82-12c1.3-5.1 5.3-9.1 8.9-11 1.5-0.6 4.8 0.55 4.8 1.6 0.079 3.8 0.061 9.7 0.051 13-0.0017 0.58-0.0032 1.1-0.0039 1.5-4e-4 0.26-8e-4 0.54-0.0012 0.83-0.0037 2.8-0.0093 7.1-0.11 9.8-0.093 2.5-0.61 4.9-2.1 6.8-1.2 1.6-3.4 2.6-3.9 2.2-0.31-0.26-0.12-0.8 0.14-1.6 0.12-0.36 0.26-0.77 0.37-1.2 0.36-1.4 0.56-2.9 0.56-7.5 0-2 0.036-8.2 0.066-13 0.022-3.9 0.041-7.2 0.041-8 0-0.045 4e-5 -0.089 9e-5 -0.13 9.8e-4 -0.93 0.0015-1.4-0.48-1-2.7 2.1-4.8 6.9-4.3 11 0.2 1.8 0.84 2.7 1.3 3.4 0.37 0.54 0.6 0.88 0.3 1.4-0.55 0.89-7.2-1.8-5.6-8.3z" clip-rule="evenodd" fill-rule="evenodd"/>
	<g fill="white" transform="scale(.99 1)" stroke-width="1.1" aria-label="c">
		<path d="m59 23c0.5 0.28 0.19 2-0.28 2.7-0.6 1.1-0.92 1.7-2 3.2-1.1 1.4-2.3 2.6-3.7 3.4-1.4 0.84-3 1.2-4.7 1.1-2-0.15-3.6-0.71-4.8-1.7-1.2-0.98-2.1-2.2-2.7-3.8-0.55-1.6-0.82-3.3-0.8-5.2 0.015-1.5 0.21-3 0.58-4.5 0.39-1.5 0.96-2.8 1.7-4 0.77-1.2 1.7-2.1 2.9-2.8 1.2-0.71 2.5-1.1 4.1-1.1 1.3 0 2.3 0.23 3.1 0.69 0.74 0.44 1.3 1 1.6 1.8 0.34 0.73 0.53 1.5 0.58 2.4 0.03 1.3-0.2 2.4-0.69 3.3-0.49 0.87-1.1 1.3-1.9 1.4h-0.022c-0.48-0.03-0.82-0.23-1-0.6-0.22-0.39-0.23-0.8-0.022-1.2 0.22-0.44 0.45-0.97 0.67-1.6 0.24-0.62 0.37-1.2 0.4-1.7 0.015-0.47-0.12-0.92-0.4-1.3-0.27-0.43-0.69-0.67-1.3-0.71-1.2 0-2.3 0.5-3.1 1.5-0.86 0.99-1.5 2.2-2 3.7-0.46 1.5-0.7 3-0.71 4.5 0 1.2 0.16 2.5 0.49 3.7 0.33 1.2 0.88 2.2 1.6 3 0.79 0.79 1.9 1.2 3.2 1.2 1.2-0.044 2.3-0.43 3.3-1.2 0.97-0.74 1.8-1.6 2.5-2.7 0.73-1.1 1.4-2.1 1.9-3.1 0.15-0.27 1.1-2.4 1.4-2.4 0.3-0.089-0.19 1.9 0.09 2z" stroke-width="1.1"/>
	</g>
</svg>
