<svg width="18" height="20" viewBox="0 0 18 20" fill="none" xmlns="http://www.w3.org/2000/svg">
<path d="M17.42 8.18L9.70999 0.300002C9.61703 0.206274 9.50643 0.131879 9.38457 0.0811107C9.26271 0.030342 9.132 0.0042038 8.99999 0.0042038C8.86798 0.0042038 8.73728 0.030342 8.61542 0.0811107C8.49356 0.131879 8.38296 0.206274 8.28999 0.300002L0.579993 8.19C0.39343 8.37807 0.246088 8.60133 0.146521 8.84681C0.0469548 9.09229 -0.00285185 9.35511 -6.70605e-06 9.62V18C-0.00078153 18.5119 0.194766 19.0046 0.546368 19.3767C0.897969 19.7488 1.37885 19.9718 1.88999 20H16.11C16.6211 19.9718 17.102 19.7488 17.4536 19.3767C17.8052 19.0046 18.0008 18.5119 18 18V9.62C18.0008 9.08294 17.7928 8.56659 17.42 8.18ZM6.99999 18V12H11V18H6.99999ZM16 18H13V11C13 10.7348 12.8946 10.4804 12.7071 10.2929C12.5196 10.1054 12.2652 10 12 10H5.99999C5.73478 10 5.48042 10.1054 5.29289 10.2929C5.10535 10.4804 4.99999 10.7348 4.99999 11V18H1.99999V9.58L8.99999 2.43L16 9.62V18Z" fill="black"/>
</svg>
