<svg width="20" height="20" viewBox="0 0 20 20" fill="none" xmlns="http://www.w3.org/2000/svg">
<path d="M10 0C8.02219 0 6.08879 0.58649 4.4443 1.6853C2.79981 2.78412 1.51809 4.3459 0.761209 6.17317C0.00433284 8.00043 -0.193701 10.0111 0.192152 11.9509C0.578004 13.8907 1.53041 15.6725 2.92894 17.0711C4.32746 18.4696 6.10929 19.422 8.0491 19.8079C9.98891 20.1937 11.9996 19.9957 13.8268 19.2388C15.6541 18.4819 17.2159 17.2002 18.3147 15.5557C19.4135 13.9112 20 11.9778 20 10C20 8.68678 19.7413 7.38642 19.2388 6.17317C18.7363 4.95991 17.9997 3.85752 17.0711 2.92893C16.1425 2.00035 15.0401 1.26375 13.8268 0.761205C12.6136 0.258658 11.3132 0 10 0ZM14 11.18L10.36 14.55C10.042 14.8378 9.62892 14.9981 9.2 15C8.96198 14.9994 8.72678 14.9483 8.51 14.85C8.21506 14.7307 7.96238 14.5262 7.78426 14.2625C7.60613 13.9989 7.51065 13.6882 7.51 13.37V6.63C7.51065 6.31184 7.60613 6.00109 7.78426 5.73747C7.96238 5.47384 8.21506 5.26931 8.51 5.15C8.81384 5.0132 9.15117 4.9687 9.48008 5.02204C9.80899 5.07537 10.115 5.22419 10.36 5.45L14 8.82C14.1637 8.9699 14.2944 9.15222 14.3838 9.35536C14.4733 9.55851 14.5195 9.77804 14.5195 10C14.5195 10.222 14.4733 10.4415 14.3838 10.6446C14.2944 10.8478 14.1637 11.0301 14 11.18Z" fill="black"/>
</svg>
